<svg width="287" height="310" viewBox="0 0 287 310" fill="none" xmlns="http://www.w3.org/2000/svg">
<path d="M128.399 191.166C101.92 226.752 111.85 280.13 111.85 280.13C111.85 280.13 87.7967 254.131 82.0603 238.903C76.3239 223.675 75.0085 213.845 76.5437 197.676C77.9249 183.13 80.5633 174.753 87.5768 161.874C94.0888 149.915 105.23 139.09 105.23 139.09C105.23 139.09 88.0982 123.777 80.957 110.882C73.9599 98.2474 71.3311 89.4449 72.1305 75.0797C73.0179 59.1321 87.5768 37.1074 87.5768 37.1074C87.5768 37.1074 90.2214 57.5962 95.3 69.6551C100.56 82.1447 104.025 89.7044 114.056 98.948C128.011 111.807 142.742 117.392 159.292 117.392C175.842 117.392 183.57 114.977 195.701 106.542C203.417 101.178 212.251 89.1837 212.251 89.1837C212.251 111.75 175.842 140.898 168.119 145.6C158.924 150.663 154.879 155.581 128.399 191.166Z" fill="white" stroke="white"/>
<path d="M53.7926 117.392C33.4917 99.165 30.9909 77.6112 30.6232 71.825C30.6232 71.825 14.0735 80.5043 8.55685 140.175C3.33253 196.684 36.1396 233.84 53.7926 245.413C22.0172 175.11 40.5529 130.772 53.7926 117.392Z" fill="white" stroke="white"/>
<ellipse cx="156.947" cy="55.5512" rx="29.7894" ry="29.2929" fill="white"/>
<path d="M110.247 20.6562C108.259 16.3407 107.351 10.0701 105.232 8.69409C117.775 0.435982 136.048 5.64922 142.603 8.90455C115.679 4.42569 110.986 22.2619 110.247 20.6562Z" fill="white"/>
<path d="M109.791 20.867C110.095 20.7265 110.399 20.586 110.702 20.4455C110.104 19.1412 109.636 17.7536 109.191 16.3566C108.185 13.6643 108.015 10.6309 105.507 8.27519L105.506 9.11016C115.615 2.65194 128.793 4.18624 139.696 8.18361C139.696 8.18361 139.696 8.18361 139.696 8.18361C140.606 8.53697 141.508 8.92106 142.377 9.35171L142.688 8.41209C132.201 6.50958 119.551 7.96575 112.555 17.0623C112.088 17.6433 111.635 18.2649 111.211 18.8821C111.007 19.1773 110.791 19.5016 110.587 19.7969C110.483 19.9455 110.388 20.0815 110.281 20.2106C110.239 20.2628 110.176 20.3204 110.192 20.3063C110.186 20.3144 110.277 20.2257 110.479 20.2748C110.659 20.332 110.697 20.4395 110.702 20.4455C110.399 20.586 110.095 20.7265 109.791 20.867C109.849 20.9842 109.942 21.1548 110.2 21.2356C110.479 21.314 110.699 21.1649 110.743 21.1363C110.821 21.0844 110.884 21.0252 110.936 20.9721C110.974 20.9329 111.011 20.8919 111.047 20.8485C111.202 20.6613 111.297 20.5209 111.409 20.3618C111.624 20.0514 111.836 19.7332 112.036 19.4434C112.45 18.8394 112.887 18.2413 113.336 17.6824C120.015 8.98877 132.163 7.5275 142.517 9.39701L142.829 8.45739C141.922 8.00829 140.996 7.61468 140.064 7.25263C140.064 7.25263 140.064 7.25263 140.064 7.25263C128.946 3.19491 115.556 1.54856 104.958 8.27801L104.319 8.69877L104.957 9.11298C106.775 10.7493 107.308 14.007 108.236 16.664C108.686 18.0748 109.162 19.4932 109.791 20.867ZM110.702 20.4455L109.791 20.867L110.702 20.4455V20.4455Z" fill="white"/>
<path d="M235.779 111.213C245.404 102.077 247.436 98.105 249.35 95.1684C245.186 87.975 228.086 69.7346 221.03 65.4022C243.743 86.7779 234.666 112.269 235.779 111.213Z" fill="white"/>
<path d="M236.129 111.569C235.896 111.331 235.663 111.094 235.429 110.856C236.799 109.556 238.146 108.237 239.452 106.896C243.056 103.223 246.293 99.3199 248.926 94.9013L248.912 95.4143C241.239 84.31 231.621 73.9347 220.762 65.823L221.379 65.0437C221.385 65.0498 221.392 65.0558 221.398 65.0619C232.639 75.2825 238.632 90.8063 236.903 105.81C236.813 106.72 236.688 107.703 236.552 108.614C236.515 108.86 236.481 109.085 236.446 109.306C236.405 109.561 236.37 109.779 236.334 110.004C236.292 110.269 236.264 110.437 236.226 110.7C236.21 110.812 236.198 110.905 236.188 111.02C236.184 111.069 236.183 111.099 236.184 111.118C236.179 111.116 236.2 111.088 236.118 110.953C236.127 110.914 235.82 110.691 235.645 110.755C235.475 110.792 235.447 110.846 235.429 110.856C235.663 111.094 235.896 111.331 236.129 111.569C236.072 111.616 236.011 111.691 235.814 111.733C235.718 111.751 235.577 111.737 235.468 111.676C235.354 111.613 235.304 111.539 235.281 111.507C235.179 111.343 235.188 111.263 235.178 111.188C235.172 111.032 235.178 111.029 235.183 110.944C235.196 110.784 235.21 110.689 235.227 110.566C235.268 110.284 235.295 110.117 235.338 109.85C235.375 109.625 235.41 109.409 235.449 109.156C235.484 108.937 235.518 108.715 235.554 108.472C235.689 107.574 235.811 106.609 235.9 105.715C237.587 90.9798 231.745 75.834 220.7 65.7787C220.7 65.7787 220.7 65.7787 220.7 65.7787C220.694 65.7728 220.687 65.7668 220.681 65.7608L221.297 64.9815C232.486 73.3541 241.895 83.5239 249.788 94.9225L249.939 95.1829L249.774 95.4355C247.153 99.8435 243.799 103.9 240.18 107.582C238.862 108.934 237.506 110.262 236.129 111.569ZM235.429 110.856L236.129 111.569L235.429 110.856V110.856Z" fill="white"/>
</svg>
